Run_50001
nRows=4
nColumns=164

# SIMM Motion File Header:
name Run_50001
datacolumns 164
datarows 4
otherdata 1
range 3.54166700 3.56666700
endheader
time	pelvis_tilt	pelvis_list	pelvis_rotation	pelvis_tx	pelvis_ty	pelvis_tz	hip_flexion_r	hip_adduction_r	hip_rotation_r	knee_angle_r	ankle_angle_r	hip_flexion_l	hip_adduction_l	hip_rotation_l	knee_angle_l	ankle_angle_l	lumbar_extension	lumbar_bending	lumbar_rotation	arm_flex_r	arm_add_r	arm_rot_r	elbow_flex_r	pro_sup_r	arm_flex_l	arm_add_l	arm_rot_l	elbow_flex_l	pro_sup_l	subtalar_angle_r	mtp_angle_r	subtalar_angle_l	mtp_angle_l	wrist_flex_r	wrist_dev_r	wrist_flex_l	wrist_dev_l	RASI_tx	RASI_ty	RASI_tz	LPSI_tx	LPSI_ty	LPSI_tz	RPSI_tx	RPSI_ty	RPSI_tz	RTH3_tx	RTH3_ty	RTH3_tz	LTH1_tx	LTH1_ty	LTH1_tz	LTH2_tx	LTH2_ty	LTH2_tz	LTH3_tx	LTH3_ty	LTH3_tz	RTB1_tx	RTB1_ty	RTB1_tz	RTB2_tx	RTB2_ty	RTB2_tz	RTB3_tx	RTB3_ty	RTB3_tz	LTB1_tx	LTB1_ty	LTB1_tz	LTB2_tx	LTB2_ty	LTB2_tz	LTB3_tx	LTB3_ty	LTB3_tz	RCAL_tx	RCAL_ty	RCAL_tz	RTOE_tx	RTOE_ty	RTOE_tz	RMT5_tx	RMT5_ty	RMT5_tz	LCAL_tx	LCAL_ty	LCAL_tz	LTOE_tx	LTOE_ty	LTOE_tz	LMT5_tx	LMT5_ty	LMT5_tz	LACR_tx	LACR_ty	LACR_tz	RACR_tx	RACR_ty	RACR_tz	CLAV_tx	CLAV_ty	CLAV_tz	C7_tx	C7_ty	C7_tz	RUA1_tx	RUA1_ty	RUA1_tz	RUA2_tx	RUA2_ty	RUA2_tz	RUA3_tx	RUA3_ty	RUA3_tz	RLEL_tx	RLEL_ty	RLEL_tz	LUA1_tx	LUA1_ty	LUA1_tz	LUA2_tx	LUA2_ty	LUA2_tz	LUA3_tx	LUA3_ty	LUA3_tz	LLEL_tx	LLEL_ty	LLEL_tz	LMEL_tx	LMEL_ty	LMEL_tz	RFAsuperior_tx	RFAsuperior_ty	RFAsuperior_tz	RFAradius_tx	RFAradius_ty	RFAradius_tz	RFAulna_tx	RFAulna_ty	RFAulna_tz	LFAsuperior_tx	LFAsuperior_ty	LFAsuperior_tz	LFAradius_tx	LFAradius_ty	LFAradius_tz	LFAulna_tx	LFAulna_ty	LFAulna_tz	LASI_tx	LASI_ty	LASI_tz	RTH1_tx	RTH1_ty	RTH1_tz	RMEL_tx	RMEL_ty	RMEL_tz	RTH2_tx	RTH2_ty	RTH2_tz
      3.54166700	     -5.10810434	     -0.82262180	     -5.89487676	      1.00884527	      0.96338718	     -0.31207323	     35.73453505	     10.85762449	     10.52619555	    -18.63516472	      9.11171096	    -17.39486586	      3.43176358	     -7.19789967	    -74.23588965	    -17.97563035	     -4.08588962	      2.92016351	    -15.51424912	    -52.27172998	    -26.33209093	     -4.00145017	     73.96837800	    113.71581299	    -25.36468946	    -22.56326052	      1.33566318	    121.38392984	    123.04596089	      0.00000000	      0.00000000	      0.00000000	      0.00000000	      0.00000000	      0.00000000	      0.00000000	      0.00000000	      1.01035226	      0.99039853	     -0.20356577	      0.86882236	      1.03716794	     -0.37820345	      0.84764674	      1.03134004	     -0.28220160	      1.11399883	      0.60768978	     -0.21177173	      0.92699037	      0.80285477	     -0.49287230	      0.91918202	      0.68493847	     -0.46424436	      0.80417431	      0.61439233	     -0.45206946	      1.23332265	      0.41779736	     -0.29246797	      1.21534397	      0.34985773	     -0.22872353	      1.24104843	      0.29556018	     -0.30034490	      0.64688216	      0.47595232	     -0.38397485	      0.57658863	      0.53952134	     -0.44441775	      0.47884595	      0.50948413	     -0.38085126	      1.18180712	      0.09657940	     -0.30834005	      1.37494990	      0.17722813	     -0.34516181	      1.37262056	      0.14075161	     -0.25546112	      0.37609010	      0.62257355	     -0.36681216	      0.28179702	      0.43662010	     -0.36084298	      0.25880543	      0.46935882	     -0.44188121	      1.04814777	      1.45556240	     -0.48386095	      0.91990310	      1.45821980	     -0.12175595	      1.03265258	      1.44382843	     -0.25918935	      0.92449433	      1.50121611	     -0.33448038	      0.80459540	      1.37327596	     -0.08944207	      0.75637477	      1.39514923	     -0.14457360	      0.72835620	      1.32840082	     -0.08100607	      0.66267176	      1.28874196	     -0.07740922	      1.01306952	      1.33628408	     -0.56492643	      0.94663211	      1.29659491	     -0.58717024	      1.01596268	      1.25301140	     -0.59522973	      0.97506962	      1.17976554	     -0.62940177	      0.90331547	      1.17555701	     -0.57375455	      0.70345214	      1.16497494	     -0.06792979	      0.73756578	      1.05167368	     -0.11301530	      0.68279395	      1.03750664	     -0.07109830	      1.06949000	      1.15245644	     -0.54128672	      1.10157712	      1.16806887	     -0.41923622	      1.13887251	      1.12268587	     -0.45669705	      1.03228536	      0.98316391	     -0.42816987	      0.97990503	      0.82687149	     -0.14493109	      0.65571085	      1.27432400	     -0.15946114	     -0.00000000	     -0.00000000	      0.00000000
      3.55000000	     -4.76964596	     -1.13077787	     -6.52249087	      1.00831336	      0.95855170	     -0.31155364	     34.33995365	     11.45584892	      9.66568489	    -19.52801016	      7.21955208	    -15.14723378	      2.34924102	     -8.75847722	    -81.10397074	    -16.22052107	     -4.84958299	      3.31727059	    -14.15496910	    -50.88248727	    -26.21632058	     -3.32246194	     74.71285390	    113.45719930	    -25.88481049	    -21.79367715	      1.22505160	    119.52031361	    122.52619556	      0.00000000	      0.00000000	      0.00000000	      0.00000000	      0.00000000	      0.00000000	      0.00000000	      0.00000000	      1.00874203	      0.98561307	     -0.20204834	      0.86864008	      1.03023317	     -0.38025742	      0.84702684	      1.02562519	     -0.28424697	      1.10758542	      0.59989957	     -0.21251814	      0.93048932	      0.79646068	     -0.49420274	      0.92707428	      0.67851238	     -0.46782429	      0.81582457	      0.60413409	     -0.45515500	      1.22208633	      0.40525609	     -0.29159579	      1.19848716	      0.33688714	     -0.22982736	      1.22631297	      0.28307170	     -0.30138804	      0.66363365	      0.47168151	     -0.38747463	      0.59681227	      0.53970689	     -0.44734884	      0.49829253	      0.51740910	     -0.38223659	      1.16003623	      0.09195407	     -0.31325413	      1.35666076	      0.15794703	     -0.34760498	      1.35197141	      0.12072931	     -0.25833462	      0.40338703	      0.63701218	     -0.36509168	      0.29830132	      0.45648754	     -0.36610805	      0.27981555	      0.49256858	     -0.44693445	      1.04775607	      1.44990072	     -0.48455535	      0.92358211	      1.45165384	     -0.12003239	      1.03384145	      1.43867029	     -0.25845463	      0.92599292	      1.49695937	     -0.33359113	      0.80920482	      1.36456392	     -0.08717406	      0.75942498	      1.38656361	     -0.14068320	      0.73377997	      1.31818717	     -0.07788219	      0.66899170	      1.27737981	     -0.07361640	      1.00967366	      1.33115225	     -0.56480546	      0.94191026	      1.29302625	     -0.58568299	      1.00982073	      1.24728090	     -0.59342027	      0.96728122	      1.17546441	     -0.62857861	      0.89608478	      1.17267370	     -0.57144754	      0.71318491	      1.15478032	     -0.06595496	      0.74985974	      1.04320485	     -0.11247803	      0.69604346	      1.02695528	     -0.07001644	      1.06281579	      1.14290466	     -0.54355455	      1.09863209	      1.15449393	     -0.42208904	      1.13278402	      1.10820102	     -0.46127625	      1.03284423	      0.97890997	     -0.42781528	      0.97709601	      0.82109696	     -0.14651697	      0.66101421	      1.26352050	     -0.15569116	     -0.00000000	     -0.00000000	      0.00000000
      3.55833300	     -4.61230248	     -1.47246350	     -7.03371969	      1.00731256	      0.95285512	     -0.31141573	     33.33522740	     12.06449489	      8.49339545	    -21.25077958	      4.58365573	    -12.56660492	      1.14241552	     -9.98477096	    -87.81666594	    -14.20840345	     -5.43848446	      3.77158126	    -12.76050713	    -49.42048444	    -26.18258375	     -2.50404816	     75.58648262	    112.98364983	    -26.31276925	    -21.04878370	      1.26017148	    117.46201088	    122.01407456	      0.00000000	      0.00000000	      0.00000000	      0.00000000	      0.00000000	      0.00000000	      0.00000000	      0.00000000	      1.00688345	      0.97947864	     -0.20128138	      0.86812517	      1.02267698	     -0.38213971	      0.84634172	      1.01928522	     -0.28621231	      1.09972636	      0.59131028	     -0.21339971	      0.93368603	      0.78933355	     -0.49564633	      0.93562476	      0.67148497	     -0.47139109	      0.82849719	      0.59304566	     -0.45845145	      1.20990194	      0.39226620	     -0.29169571	      1.18059119	      0.32358486	     -0.23238703	      1.20918991	      0.26988816	     -0.30366724	      0.68209376	      0.46656668	     -0.39099122	      0.61860777	      0.53870117	     -0.45054046	      0.51970773	      0.52264397	     -0.38467140	      1.13395411	      0.09092382	     -0.31848597	      1.33469116	      0.13396327	     -0.35128998	      1.32618069	      0.09964560	     -0.26143884	      0.43194977	      0.64845220	     -0.36418962	      0.31885355	      0.47285375	     -0.37077036	      0.30438318	      0.51117746	     -0.45146228	      1.04676810	      1.44371964	     -0.48555143	      0.92748219	      1.44422293	     -0.11804908	      1.03504411	      1.43247820	     -0.25840596	      0.92728048	      1.49196927	     -0.33258734	      0.81425756	      1.35479746	     -0.08435468	      0.76252758	      1.37691158	     -0.13596501	      0.73980134	      1.30685363	     -0.07416223	      0.67602135	      1.26494514	     -0.06908054	      1.00579422	      1.32483162	     -0.56492443	      0.93677454	      1.28864123	     -0.58459163	      1.00301156	      1.24047479	     -0.59147270	      0.95880412	      1.17064148	     -0.62770476	      0.88860583	      1.16928106	     -0.56925997	      0.72396143	      1.14379170	     -0.06368659	      0.76335382	      1.03422440	     -0.11200589	      0.71067105	      1.01571829	     -0.06900621	      1.05520610	      1.13248927	     -0.54610891	      1.09468265	      1.13976810	     -0.42553816	      1.12550329	      1.09280969	     -0.46645802	      1.03293104	      0.97389104	     -0.42787263	      0.97490549	      0.81541862	     -0.14771905	      0.66664284	      1.25187036	     -0.15116530	      0.00000000	      0.00000000	     -0.00000000
      3.56666700	     -4.61015915	     -1.90284791	     -7.47386813	      1.00551978	      0.94646588	     -0.31151278	     32.89120274	     12.80641237	      7.11827922	    -24.07220806	      2.27889839	     -9.61877706	     -0.23880863	    -10.93280554	    -94.38674179	    -12.10680961	     -5.93345058	      4.33696144	    -11.24290236	    -47.84061706	    -26.18732359	     -1.57349993	     76.56071954	    112.36775641	    -26.56993982	    -20.39180541	      1.47155237	    115.21415505	    121.62509421	      0.00000000	      0.00000000	      0.00000000	      0.00000000	      0.00000000	      0.00000000	      0.00000000	      0.00000000	      1.00437777	      0.97235734	     -0.20156120	      0.86686287	      1.01450546	     -0.38367781	      0.84504132	      1.01256739	     -0.28789776	      1.09085402	      0.58261795	     -0.21441902	      0.93710495	      0.78152048	     -0.49706874	      0.94486415	      0.66391126	     -0.47494638	      0.84238704	      0.58124584	     -0.46193634	      1.19727790	      0.38052602	     -0.29339040	      1.16317128	      0.31182070	     -0.23642212	      1.19006765	      0.25786476	     -0.30755057	      0.70213772	      0.46060712	     -0.39453402	      0.64188497	      0.53634870	     -0.45393493	      0.54291837	      0.52539041	     -0.38784268	      1.10397442	      0.09281815	     -0.32401022	      1.30854344	      0.10913202	     -0.35609685	      1.29566505	      0.08098375	     -0.26473356	      0.46148258	      0.65687136	     -0.36429724	      0.34278424	      0.48537410	     -0.37480243	      0.33156259	      0.52502709	     -0.45555230	      1.04501225	      1.43724859	     -0.48687263	      0.93155751	      1.43609306	     -0.11575370	      1.03646824	      1.42534311	     -0.25929164	      0.92818714	      1.48627346	     -0.33142915	      0.81982058	      1.34402933	     -0.08098523	      0.76581251	      1.36614441	     -0.13044463	      0.74649480	      1.29439193	     -0.06985574	      0.68383000	      1.25150483	     -0.06385715	      1.00119311	      1.31764797	     -0.56531248	      0.93115892	      1.28349874	     -0.58393174	      0.99542208	      1.23267337	     -0.58934851	      0.94965639	      1.16540623	     -0.62682423	      0.88102024	      1.16544905	     -0.56731758	      0.73572243	      1.13209709	     -0.06116091	      0.77798865	      1.02475998	     -0.11176262	      0.72662492	      1.00392570	     -0.06819693	      1.04663368	      1.12138830	     -0.54899454	      1.08957226	      1.12398139	     -0.42951823	      1.11701570	      1.07669598	     -0.47226121	      1.03246305	      0.96807264	     -0.42823634	      0.97283185	      0.80945643	     -0.14813890	      0.67273155	      1.23945791	     -0.14594668	      0.00000000	      0.00000000	     -0.00000000
